# xmcd
# 
# Track frame offsets:
#   150
#   15712
#   29585
#   46427
#   65557
#   80557
#   95257
#   116937
#   132922
#   148532
#   162442
#   178952
#   194907
#   210000
# 
# Disc length: 3035 seconds
# 
# Revision: 0
# Processed by: cddbd v1.5.1PL2 Copyright (c) Steve Scherf et al.
# Submitted via: Synapstar 1.0 
# 
DISCID=d00bd90e
DTITLE=Various Artist - SD-Country hits
DYEAR=1900
DGENRE=Country
TTITLE0=Trisha Yearwood/Gath Brooks - Where Your Road Leads
TTITLE1=Brooks and Dunn - Husbands And Wives
TTITLE2=Deana Carter - Absence Of the Heart
TTITLE3=John Michael Montgomery - Hold On To Me
TTITLE4=Martina McBride - Wrong Again
TTITLE5=Toby Keith - Getcha some
TTITLE6=Patty Loveless - Like Water Into Wine
TTITLE7=Randy Travis - Spirit Of A Boy, Wisdom Of A Man
TTITLE8=Mark Chesnutt - Wherever You Are
TTITLE9=The Wilkinsons - Boy Oh Boy
TTITLE10=Lari white - Take Me
TTITLE11=Wade Hayes - How Do You sleep At Night
TTITLE12=Joe Diffie - Poor Me
TTITLE13=Wynonna - Woman To Woman
EXTD=MediaType: Karaoke CD+G Producer: StarDisc
EXTT0=
EXTT1=
EXTT2=
EXTT3=
EXTT4=
EXTT5=
EXTT6=
EXTT7=
EXTT8=
EXTT9=
EXTT10=
EXTT11=
EXTT12=
EXTT13=
PLAYORDER=
